<svg xmlns="http://www.w3.org/2000/svg" version="1.1" xmlns:xlink="http://www.w3.org/1999/xlink" xmlns:svgjs="http://svgjs.dev/svgjs" viewBox="0 0 5.660203333613642 5.054542744649338"><g transform="matrix(1,0,0,1,2.839412516764401,4.141678809094309)"><rect width="5.660203333613642" height="5.660203333613642" x="-2.839412516764401" y="-4.444509103576461" fill="#212245"></rect><g><path d=" M -2.142669503038767 -2.2979679700862388 L -1.4595390561159207 -2.123733092731006 L -1.5079788234373754 -1.9338131386928816 L -1.8849117934416124 -2.029951248325769 L -1.5408486655483626 -1.8049388841670113 L -1.5813798994295798 -1.6460262695636827 L -1.9943367912868233 -1.6130625703233845 L -1.6144968832105744 -1.516183035680475 L -1.662936650532029 -1.3262630816423506 L -2.346067097454875 -1.500497958997583 L -2.287494521663116 -1.7301460666865398 L -1.7999579004112867 -1.788464528071855 L -2.200994937160518 -2.069288841754619 L -2.142669503038767 -2.2979679700862388 M -1.193121983345305 -2.7711413335967845 L -1.440477649583357 -2.494634237159949 Q -1.40419357024425 -2.4662007078940733 -1.3724229175213796 -2.4679686517740533 Q -1.340652264798509 -2.4697365956540334 -1.317316824587372 -2.4958221707895842 Q -1.2846472082917804 -2.532341975979355 -1.3034392386212188 -2.5773293030404 L -1.1640933242175724 -2.7330974517069735 Q -1.129533248928511 -2.6847383657353134 -1.1206242586213706 -2.6264534629584597 Q -1.1117152683142302 -2.568168560181606 -1.1303408437002442 -2.5083514393754363 Q -1.1489664190862585 -2.4485343185692665 -1.194970572645357 -2.3971084704448957 Q -1.2503089022889102 -2.3352483922663043 -1.3193983600992705 -2.310511844013355 Q -1.3884878179096305 -2.285775295760406 -1.4612679879529815 -2.3019090135111577 Q -1.5340481579963323 -2.3180427312619094 -1.5996347469085739 -2.37671469522134 Q -1.6652213358208152 -2.43538665918077 -1.6892911572105889 -2.5052214191378597 Q -1.7133609786003625 -2.57505617909495 -1.6964426710611034 -2.6464636077701726 Q -1.6795243635218444 -2.7178710364453957 -1.6235193070151157 -2.7804764167707168 Q -1.5681809773715625 -2.8423364949493086 -1.50017018513952 -2.8673671189920675 Q -1.4321593929074776 -2.892397743034827 -1.3608305395158093 -2.8768914645054733 Q -1.289501686124141 -2.8613851859761197 -1.2254057015053599 -2.8040466757430402 Q -1.2082637521305695 -2.7887119578900075 -1.193121983345305 -2.7711413335967845 M -1.3952708793301989 -2.687655862692629 Q -1.4221017566124794 -2.7116580297669413 -1.4533818953366529 -2.7074386789405156 Q -1.4846620340608265 -2.7032193281140895 -1.5086642011351388 -2.676388450831809 Q -1.532666368209451 -2.6495575735495285 -1.5334676942012486 -2.619414450342819 Q -1.5342690201930462 -2.5892713271361094 -1.510614626659533 -2.5587185913083363 L -1.3952708793301989 -2.687655862692629 M -0.731066288987229 -2.957366193762674 L -0.6480281532579845 -2.812474275373098 L -0.7217755368694454 -2.7702093559899494 Q -0.9083130365925521 -2.663303971667868 -1.0142239522232654 -2.848106238835411 L -1.1062123061748237 -3.0086152502250614 L -1.1660778293417744 -2.9743060803728585 L -1.2471270276882824 -3.115727533651307 L -1.187261504521332 -3.1500367035035097 L -1.2548853755343694 -3.268032517281847 L -1.0839649688113366 -3.3659876833816145 L -1.0163410977982992 -3.2479918696032772 L -0.9278442374645461 -3.2987097728630554 L -0.8467950391180379 -3.157288319584607 L -0.9352918994517909 -3.106570416324829 L -0.8418118424631802 -2.943458556101833 Q -0.830375452512446 -2.9235033817128495 -0.8162931381388951 -2.9200481795647137 Q -0.8022108237653442 -2.9165929774165775 -0.780520416820797 -2.9290238360586804 L -0.731066288987229 -2.957366193762674 M -0.09227319571041992 -3.1979348098712514 L -0.45589053085928843 -3.124290844882697 Q -0.4438191713042477 -3.0798017194867877 -0.4173006288430832 -3.0622157334258526 Q -0.3907820863819188 -3.044629747364917 -0.35647856419806323 -3.051577291231762 Q -0.30845363314066554 -3.061303852645344 -0.29660557497724277 -3.1085968068537264 L -0.09176454250793398 -3.1500835688014566 Q -0.0929927780540234 -3.0906572157462397 -0.1207147447955419 -3.0386188399070364 Q -0.14843671153706028 -2.9865804640678335 -0.1991414150782546 -2.949783276148108 Q -0.24984611861944894 -2.9129860882283825 -0.31747306235333556 -2.8992895017480316 Q -0.3988214149607644 -2.8828138977209425 -0.4689854497092857 -2.90431408906447 Q -0.5391494844578071 -2.925814280407997 -0.5878257390593966 -2.9822755258597335 Q -0.6365019936609863 -3.03873677131147 -0.6539701039547673 -3.124985627088021 Q -0.6714382142485483 -3.211234482864572 -0.6489579222711965 -3.2815970188664316 Q -0.6264776302938448 -3.3519595548682917 -0.570208683279013 -3.3990664078924753 Q -0.5139397362641811 -3.446173260916659 -0.43161128302292784 -3.4628473661970864 Q -0.350262930415499 -3.4793229702241755 -0.28078744723722837 -3.458703628887803 Q -0.21131196405895758 -3.438084287551431 -0.16342351165428787 -3.382993942423762 Q -0.11553505924961815 -3.327903597296093 -0.09846395146251397 -3.243614942787191 Q -0.09389842263573023 -3.221072628209229 -0.09227319571041992 -3.1979348098712514 M -0.30421063964098527 -3.2519396231769044 Q -0.3113566847611684 -3.2872232459945847 -0.33894837566639274 -3.3025512789078633 Q -0.36654006657161703 -3.3178793118211423 -0.40182368938929697 -3.310733266700959 Q -0.43710731220697696 -3.3035872215807762 -0.45577885234483995 -3.2799097303944156 Q -0.4744503924827029 -3.2562322392080554 -0.473768049292614 -3.2175989063493575 L -0.30421063964098527 -3.2519396231769044 M 0.15665272927200127 -2.9655316804406175 Q 0.09784050963304253 -3.012311727695178 0.0726199177879836 -3.0832548157798176 Q 0.04739932594292469 -3.1541979038644574 0.06379937907421736 -3.240656207440752 Q 0.08001306796538171 -3.3261320302945894 0.12995225138835192 -3.382818254009412 Q 0.17989143481132217 -3.4395044777242347 0.2517491512592638 -3.4614980810417277 Q 0.32360686770720537 -3.4834916843592203 0.40613524839366866 -3.467837088188441 Q 0.48866362908013206 -3.4521824920176614 0.5474758487190908 -3.4054024447631015 Q 0.6062880683580496 -3.358622397508541 0.6319999005643374 -3.2875861273038374 Q 0.6577117327706253 -3.2165498570991335 0.641498043879461 -3.1310740342452967 Q 0.6252843549882966 -3.0455982113914595 0.5752519894452622 -2.988420747315408 Q 0.5252196239022279 -2.9312432832393562 0.45287066709305734 -2.9093428620419277 Q 0.3805217102838868 -2.8874424408444987 0.2979933295974234 -2.903097037015278 Q 0.21546494891096007 -2.9187516331860577 0.15665272927200127 -2.9655316804406175 M 0.4026592892315187 -3.0873184714192963 Q 0.4353616184230249 -3.112159116850733 0.4459843801103395 -3.1681605180308337 Q 0.45660714179765405 -3.2241619192109336 0.4351798491339116 -3.2587613574881997 Q 0.4137525564701692 -3.2933607957654654 0.37445332757185323 -3.3008153653705983 Q 0.3351540986735374 -3.3082699349757316 0.30303619196332443 -3.283827347785459 Q 0.27091828525311135 -3.259384760595187 0.26029552356579677 -3.203383359415087 Q 0.24948639763835392 -3.146399477512529 0.2694399692184095 -3.1120795855954557 Q 0.289393540798465 -3.077759693678382 0.32967525041923884 -3.0701187598331208 Q 0.36995696004001255 -3.0624778259878593 0.4026592892315187 -3.0873184714192963 M 1.1890938206452808 -3.126248100134837 Q 1.2364894697260476 -3.1213590871247474 1.2837067474328712 -3.0894290278395427 Q 1.3392077580707165 -3.0518972037674597 1.3647479257907114 -2.9923745204203986 Q 1.3902880935107063 -2.932851837073337 1.3799703811287172 -2.8613620139430305 Q 1.369652668746728 -2.7898721908127238 1.320917315100889 -2.717803714312835 Q 1.27218196145505 -2.6457352378129464 1.2093966433682806 -2.6091223461934203 Q 1.146611325281511 -2.572509454573894 1.0818588040533696 -2.5740460074038034 Q 1.0171062828252284 -2.575582560233713 0.9616052721873831 -2.613114384305796 Q 0.9143879944805595 -2.6450444435910008 0.8922002869407439 -2.6872102547906875 Q 0.8700125794009286 -2.729376065990374 0.8733670528070909 -2.7753950567242804 L 0.8296732874694421 -2.710781939862311 L 0.6673121220214171 -2.820576529685121 L 1.081842716250393 -3.4335727665807254 L 1.244203881698418 -3.3237781767579158 L 1.100238526675652 -3.1108862404306583 Q 1.141698171564514 -3.1311371131449257 1.1890938206452808 -3.126248100134837 M 1.1795291065548512 -2.916629956253234 Q 1.172177477008315 -2.95842054781414 1.1365574254049218 -2.982508136397716 Q 1.1009373738015287 -3.0065957249812914 1.0591348908156928 -2.9974413590164146 Q 1.0173324078298567 -2.9882869930515374 0.9870828779807154 -2.9435548352240204 Q 0.9562731716528861 -2.8979943041034013 0.9633447129600781 -2.855789525895944 Q 0.9704162542672701 -2.8135847476884863 1.0060363058706634 -2.7894971591049105 Q 1.0416563574740565 -2.765409570521335 1.0837389286992365 -2.774978123132763 Q 1.1258214999244163 -2.784546675744191 1.1560710297735577 -2.829278833571708 Q 1.186880736101387 -2.8748393646923276 1.1795291065548512 -2.916629956253234 M 1.7069832385094013 -2.098728457404355 L 1.5051419180034826 -2.4100178426015173 Q 1.4681775305168205 -2.3824745302056582 1.4615398446527963 -2.351354743471644 Q 1.454902158788772 -2.3202349567376297 1.4739437927987644 -2.290868033605822 Q 1.5006020804127536 -2.249754341221291 1.5489454784701644 -2.2560722415261965 L 1.6626512358441186 -2.0807097576819733 Q 1.6069134420219828 -2.060062764200086 1.548334691225641 -2.0667732004854615 Q 1.4897559404292993 -2.073483636770837 1.4369298507151118 -2.107164554892358 Q 1.3841037610009241 -2.1408454730138793 1.3465645396669395 -2.1987402643308718 Q 1.3014086647289576 -2.268381824900587 1.2956845766137794 -2.341542502967768 Q 1.2899604884986013 -2.4147031810349486 1.3246413559901096 -2.480691721176677 Q 1.3593222234816176 -2.546680261318405 1.4331590587844485 -2.594556369686386 Q 1.5069958940872792 -2.642432478054366 1.58070061884046 -2.6473175112229215 Q 1.6544053435936406 -2.6522025443914763 1.7188632779724342 -2.6171251343442803 Q 1.7833212123512276 -2.582047724297084 1.8290211339752092 -2.511567108780745 Q 1.874177008913191 -2.44192554821103 1.8804681286319924 -2.3697284443031603 Q 1.8867592483507936 -2.297531340395291 1.8530649399362202 -2.2327783977558737 Q 1.819370631521647 -2.168025455116457 1.7472119061120623 -2.121237440120476 Q 1.7279136423397314 -2.108724366342481 1.7069832385094013 -2.098728457404355 M 1.679516261296637 -2.315706717059081 Q 1.7097222393750677 -2.335292397755073 1.7138657453168462 -2.3665826735370223 Q 1.7180092512586245 -2.3978729493189714 1.6984235705626323 -2.4280789273974026 Q 1.6788378898666403 -2.4582849054758333 1.6499632446294954 -2.4669742588711685 Q 1.6210885993923503 -2.475663612266503 1.5853961846186748 -2.4608632228248735 L 1.679516261296637 -2.315706717059081 M 2.1215375344577563 -1.4587937390203316 Q 2.067775335533006 -1.3915711537771593 1.9594069567030579 -1.372695389692789 L 1.6372573214540296 -1.3165828910056145 L 1.6036241418127877 -1.509675638738977 L 1.900159432974737 -1.5613265931880274 Q 1.9474474528278054 -1.5695632902430252 1.970249601152481 -1.5989114082709244 Q 1.9930517494771567 -1.6282595262988235 1.9858446395540332 -1.6696365436702583 Q 1.9782943339202852 -1.7129838952022376 1.9469122928299865 -1.7328941311879513 Q 1.915530251739688 -1.752804367173665 1.8682422318866196 -1.7445676701186672 L 1.5717069407246702 -1.6929167156696168 L 1.538073761083428 -1.8860094634029791 L 2.0907524931161645 -1.982275860233269 L 2.1243856727574064 -1.7891831124999065 L 2.045572306335626 -1.7754552840749098 Q 2.0874701996240956 -1.7563616584897046 2.118171931644242 -1.717046856557568 Q 2.1488736636643884 -1.6777320546254315 2.158654741417198 -1.6215775310499128 Q 2.175299733382507 -1.5260163242635039 2.1215375344577563 -1.4587937390203316" fill="#ffffff" fill-rule="nonzero"></path></g><g><path d=" M -1.7929597611860795 0.051363636363636334 Q -1.7552324884588069 0.07045454545454544 -1.7352324884588068 0.10636363636363635 Q -1.7152324884588068 0.14227272727272725 -1.7152324884588068 0.1918181818181818 Q -1.7152324884588068 0.2409090909090909 -1.7352324884588068 0.27659090909090905 Q -1.7552324884588069 0.31227272727272726 -1.7929597611860795 0.3311363636363636 Q -1.8306870339133523 0.35 -1.883414306640625 0.35 L -1.977505215731534 0.35 L -1.977505215731534 0.03227272727272723 L -1.883414306640625 0.03227272727272723 Q -1.8306870339133523 0.03227272727272723 -1.7929597611860795 0.051363636363636334 M -1.7822779430042612 0.2888636363636363 Q -1.747505215731534 0.2540909090909091 -1.747505215731534 0.1918181818181818 Q -1.747505215731534 0.12909090909090906 -1.7822779430042612 0.09386363636363632 Q -1.8170506702769886 0.0586363636363636 -1.883414306640625 0.0586363636363636 L -1.9456870339133523 0.0586363636363636 L -1.9456870339133523 0.3236363636363636 L -1.883414306640625 0.3236363636363636 Q -1.8170506702769886 0.3236363636363636 -1.7822779430042612 0.2888636363636363 M -1.432962646484375 0.23818181818181816 L -1.6388717373934658 0.23818181818181816 Q -1.6375081010298296 0.26636363636363636 -1.6252353737571024 0.2863636363636364 Q -1.612962646484375 0.30636363636363634 -1.592962646484375 0.3165909090909091 Q -1.572962646484375 0.3268181818181818 -1.5493262828480114 0.3268181818181818 Q -1.5184171919389204 0.3268181818181818 -1.4972808283025567 0.31181818181818177 Q -1.4761444646661932 0.2968181818181818 -1.4693262828480114 0.27136363636363636 L -1.4356899192116477 0.27136363636363636 Q -1.444780828302557 0.3077272727272727 -1.474553555575284 0.3306818181818182 Q -1.5043262828480113 0.35363636363636364 -1.5493262828480114 0.35363636363636364 Q -1.5843262828480114 0.35363636363636364 -1.6120535555752842 0.33795454545454545 Q -1.6397808283025568 0.32227272727272727 -1.655462646484375 0.2934090909090909 Q -1.6711444646661933 0.26454545454545453 -1.6711444646661933 0.2259090909090909 Q -1.6711444646661933 0.18727272727272726 -1.6556899192116477 0.15818181818181817 Q -1.6402353737571023 0.12909090909090906 -1.6125081010298294 0.11363636363636362 Q -1.5847808283025568 0.09818181818181815 -1.5493262828480114 0.09818181818181815 Q -1.5138717373934658 0.09818181818181815 -1.487280828302557 0.11363636363636362 Q -1.4606899192116478 0.12909090909090906 -1.446371737393466 0.1552272727272727 Q -1.432053555575284 0.18136363636363634 -1.432053555575284 0.21318181818181817 Q -1.432053555575284 0.22954545454545452 -1.432962646484375 0.23818181818181816 M -1.475462646484375 0.16499999999999998 Q -1.4870535555752842 0.14545454545454542 -1.507053555575284 0.13545454545454544 Q -1.527053555575284 0.12545454545454543 -1.5506899192116477 0.12545454545454543 Q -1.586144464666193 0.12545454545454543 -1.6111444646661932 0.14818181818181816 Q -1.6361444646661931 0.1709090909090909 -1.6388717373934658 0.21227272727272725 L -1.4643262828480115 0.21227272727272725 Q -1.463871737393466 0.1845454545454545 -1.475462646484375 0.16499999999999998 M -1.5097808283025569 0.028636363636363626 L -1.602962646484375 0.0827272727272727 L -1.602962646484375 0.05818181818181817 L -1.5097808283025569 0 L -1.5097808283025569 0.028636363636363626 M -1.285685702237216 0.3190909090909091 L -1.2020493386008522 0.10181818181818181 L -1.1684129749644887 0.10181818181818181 L -1.267958429509943 0.35 L -1.303867520419034 0.35 L -1.4034129749644886 0.10181818181818181 L -1.3693220658735794 0.10181818181818181 L -1.285685702237216 0.3190909090909091 M -0.9015961248224431 0.23818181818181816 L -1.107505215731534 0.23818181818181816 Q -1.1061415793678977 0.26636363636363636 -1.0938688520951705 0.2863636363636364 Q -1.081596124822443 0.30636363636363634 -1.061596124822443 0.3165909090909091 Q -1.0415961248224432 0.3268181818181818 -1.0179597611860796 0.3268181818181818 Q -0.9870506702769886 0.3268181818181818 -0.9659143066406249 0.31181818181818177 Q -0.9447779430042613 0.2968181818181818 -0.9379597611860795 0.27136363636363636 L -0.9043233975497158 0.27136363636363636 Q -0.913414306640625 0.3077272727272727 -0.9431870339133522 0.3306818181818182 Q -0.9729597611860795 0.35363636363636364 -1.0179597611860796 0.35363636363636364 Q -1.0529597611860795 0.35363636363636364 -1.0806870339133523 0.33795454545454545 Q -1.108414306640625 0.32227272727272727 -1.124096124822443 0.2934090909090909 Q -1.1397779430042614 0.26454545454545453 -1.1397779430042614 0.2259090909090909 Q -1.1397779430042614 0.18727272727272726 -1.1243233975497158 0.15818181818181817 Q -1.1088688520951704 0.12909090909090906 -1.0811415793678976 0.11363636363636362 Q -1.053414306640625 0.09818181818181815 -1.0179597611860796 0.09818181818181815 Q -0.982505215731534 0.09818181818181815 -0.9559143066406249 0.11363636363636362 Q -0.9293233975497158 0.12909090909090906 -0.915005215731534 0.1552272727272727 Q -0.9006870339133521 0.18136363636363634 -0.9006870339133521 0.21318181818181817 Q -0.9006870339133521 0.22954545454545452 -0.9015961248224431 0.23818181818181816 M -0.9440961248224431 0.16499999999999998 Q -0.9556870339133522 0.14545454545454542 -0.9756870339133522 0.13545454545454544 Q -0.9956870339133522 0.12545454545454543 -1.0193233975497158 0.12545454545454543 Q -1.0547779430042614 0.12545454545454543 -1.0797779430042613 0.14818181818181816 Q -1.1047779430042612 0.1709090909090909 -1.107505215731534 0.21227272727272725 L -0.9329597611860795 0.21227272727272725 Q -0.932505215731534 0.1845454545454545 -0.9440961248224431 0.16499999999999998 M -0.8106828169389204 0.013636363636363613 L -0.8106828169389204 0.35 L -0.8425009987571022 0.35 L -0.8425009987571022 0.013636363636363613 L -0.8106828169389204 0.013636363636363613 M -0.6927264959161931 0.33795454545454545 Q -0.7206810413707385 0.32227272727272727 -0.7368174050071021 0.2934090909090909 Q -0.7529537686434657 0.26454545454545453 -0.7529537686434657 0.2259090909090909 Q -0.7529537686434657 0.18727272727272726 -0.7365901322798294 0.1584090909090909 Q -0.720226495916193 0.12954545454545452 -0.6920446777343748 0.11386363636363633 Q -0.6638628595525566 0.09818181818181815 -0.6288628595525567 0.09818181818181815 Q -0.5938628595525567 0.09818181818181815 -0.5654537686434657 0.11386363636363633 Q -0.5370446777343749 0.12954545454545452 -0.5209083140980113 0.1584090909090909 Q -0.5047719504616476 0.18727272727272726 -0.5047719504616476 0.2259090909090909 Q -0.5047719504616476 0.26409090909090904 -0.5211355868252839 0.29318181818181815 Q -0.5374992231889203 0.32227272727272727 -0.566135586825284 0.33795454545454545 Q -0.5947719504616475 0.35363636363636364 -0.6297719504616476 0.35363636363636364 Q -0.6647719504616476 0.35363636363636364 -0.6927264959161931 0.33795454545454545 M -0.5843174050071022 0.31477272727272726 Q -0.5634083140980113 0.3036363636363636 -0.5504537686434658 0.28113636363636363 Q -0.5374992231889203 0.2586363636363636 -0.5374992231889203 0.2259090909090909 Q -0.5374992231889203 0.19318181818181815 -0.5502264959161931 0.17068181818181816 Q -0.5629537686434658 0.14818181818181816 -0.5838628595525567 0.13704545454545453 Q -0.6047719504616476 0.1259090909090909 -0.6293174050071022 0.1259090909090909 Q -0.6538628595525566 0.1259090909090909 -0.6747719504616476 0.13704545454545453 Q -0.6956810413707385 0.14818181818181816 -0.7081810413707386 0.17068181818181816 Q -0.7206810413707385 0.19318181818181815 -0.7206810413707385 0.2259090909090909 Q -0.7206810413707385 0.2586363636363636 -0.7081810413707386 0.28113636363636363 Q -0.6956810413707385 0.3036363636363636 -0.6749992231889204 0.31477272727272726 Q -0.6543174050071021 0.32590909090909087 -0.6297719504616476 0.32590909090909087 Q -0.605226495916193 0.32590909090909087 -0.5843174050071022 0.31477272727272726 M -0.37771340110085216 0.11477272727272725 Q -0.35203158291903397 0.09818181818181815 -0.3165770374644885 0.09818181818181815 Q -0.2829406738281249 0.09818181818181815 -0.25589521928267034 0.11386363636363633 Q -0.2288497647372158 0.12954545454545452 -0.21362249200994304 0.1584090909090909 Q -0.19839521928267034 0.18727272727272726 -0.19839521928267034 0.22545454545454544 Q -0.19839521928267034 0.2636363636363636 -0.21362249200994304 0.2927272727272727 Q -0.2288497647372158 0.3218181818181818 -0.25589521928267034 0.3377272727272727 Q -0.2829406738281249 0.35363636363636364 -0.3165770374644885 0.35363636363636364 Q -0.35157703746448854 0.35363636363636364 -0.3774861283735794 0.33704545454545454 Q -0.40339521928267036 0.32045454545454544 -0.41521340110085214 0.2954545454545454 L -0.41521340110085214 0.4672727272727273 L -0.4465770374644885 0.4672727272727273 L -0.4465770374644885 0.10181818181818181 L -0.41521340110085214 0.10181818181818181 L -0.41521340110085214 0.15636363636363634 Q -0.40339521928267036 0.13136363636363635 -0.37771340110085216 0.11477272727272725 M -0.24271340110085216 0.17204545454545453 Q -0.25475885564630674 0.14954545454545454 -0.2756679465553976 0.1377272727272727 Q -0.2965770374644885 0.1259090909090909 -0.32294067382812486 0.1259090909090909 Q -0.34839521928267037 0.1259090909090909 -0.369531582919034 0.13818181818181816 Q -0.3906679465553976 0.15045454545454542 -0.4029406738281249 0.17318181818181816 Q -0.41521340110085214 0.1959090909090909 -0.41521340110085214 0.2259090909090909 Q -0.41521340110085214 0.25590909090909086 -0.4029406738281249 0.2786363636363636 Q -0.3906679465553976 0.30136363636363633 -0.369531582919034 0.3136363636363636 Q -0.34839521928267037 0.32590909090909087 -0.32294067382812486 0.32590909090909087 Q -0.2965770374644885 0.32590909090909087 -0.2756679465553976 0.31386363636363634 Q -0.25475885564630674 0.3018181818181818 -0.24271340110085216 0.2788636363636363 Q -0.23066794655539763 0.25590909090909086 -0.23066794655539763 0.22545454545454544 Q -0.23066794655539763 0.19454545454545452 -0.24271340110085216 0.17204545454545453 M -0.07090076793323852 0.11477272727272725 Q -0.04521894975142032 0.09818181818181815 -0.00976440429687489 0.09818181818181815 Q 0.02387195933948877 0.09818181818181815 0.05091741388494331 0.11386363636363633 Q 0.07796286843039785 0.12954545454545452 0.0931901411576706 0.1584090909090909 Q 0.1084174138849433 0.18727272727272726 0.1084174138849433 0.22545454545454544 Q 0.1084174138849433 0.2636363636363636 0.0931901411576706 0.2927272727272727 Q 0.07796286843039785 0.3218181818181818 0.05091741388494331 0.3377272727272727 Q 0.02387195933948877 0.35363636363636364 -0.00976440429687489 0.35363636363636364 Q -0.044764404296874866 0.35363636363636364 -0.07067349520596579 0.33704545454545454 Q -0.0965825861150567 0.32045454545454544 -0.10840076793323851 0.2954545454545454 L -0.10840076793323851 0.4672727272727273 L -0.13976440429687487 0.4672727272727273 L -0.13976440429687487 0.10181818181818181 L -0.10840076793323851 0.10181818181818181 L -0.10840076793323851 0.15636363636363634 Q -0.0965825861150567 0.13136363636363635 -0.07090076793323852 0.11477272727272725 M 0.06409923206676149 0.17204545454545453 Q 0.05205377752130694 0.14954545454545454 0.031144686612216033 0.1377272727272727 Q 0.010235595703125128 0.1259090909090909 -0.01612804066051124 0.1259090909090909 Q -0.04158258611505669 0.1259090909090909 -0.06271894975142034 0.13818181818181816 Q -0.08385531338778397 0.15045454545454542 -0.09612804066051124 0.17318181818181816 Q -0.10840076793323851 0.1959090909090909 -0.10840076793323851 0.2259090909090909 Q -0.10840076793323851 0.25590909090909086 -0.09612804066051124 0.2786363636363636 Q -0.08385531338778397 0.30136363636363633 -0.06271894975142034 0.3136363636363636 Q -0.04158258611505669 0.32590909090909087 -0.01612804066051124 0.32590909090909087 Q 0.010235595703125128 0.32590909090909087 0.031144686612216033 0.31386363636363634 Q 0.05205377752130694 0.3018181818181818 0.06409923206676149 0.2788636363636363 Q 0.07614468661221602 0.25590909090909086 0.07614468661221602 0.22545454545454544 Q 0.07614468661221602 0.19454545454545452 0.06409923206676149 0.17204545454545453 M 0.3906845925071024 0.23818181818181816 L 0.18477550159801148 0.23818181818181816 Q 0.18613913796164785 0.26636363636363636 0.19841186523437515 0.2863636363636364 Q 0.21068459250710242 0.30636363636363634 0.2306845925071024 0.3165909090909091 Q 0.2506845925071024 0.3268181818181818 0.2743209561434661 0.3268181818181818 Q 0.30523004705255696 0.3268181818181818 0.3263664106889206 0.31181818181818177 Q 0.3475027743252842 0.2968181818181818 0.35432095614346604 0.27136363636363636 L 0.38795731977982967 0.27136363636363636 Q 0.3788664106889206 0.3077272727272727 0.3490936834161933 0.3306818181818182 Q 0.319320956143466 0.35363636363636364 0.2743209561434661 0.35363636363636364 Q 0.23932095614346605 0.35363636363636364 0.2115936834161933 0.33795454545454545 Q 0.1838664106889206 0.32227272727272727 0.1681845925071024 0.2934090909090909 Q 0.15250277432528422 0.26454545454545453 0.15250277432528422 0.2259090909090909 Q 0.15250277432528422 0.18727272727272726 0.16795731977982967 0.15818181818181817 Q 0.18341186523437514 0.12909090909090906 0.21113913796164785 0.11363636363636362 Q 0.2388664106889206 0.09818181818181815 0.2743209561434661 0.09818181818181815 Q 0.3097755015980115 0.09818181818181815 0.3363664106889206 0.11363636363636362 Q 0.3629573197798297 0.12909090909090906 0.3772755015980115 0.1552272727272727 Q 0.39159368341619333 0.18136363636363634 0.39159368341619333 0.21318181818181817 Q 0.39159368341619333 0.22954545454545452 0.3906845925071024 0.23818181818181816 M 0.34818459250710243 0.16499999999999998 Q 0.33659368341619333 0.14545454545454542 0.3165936834161933 0.13545454545454544 Q 0.2965936834161933 0.12545454545454543 0.2729573197798297 0.12545454545454543 Q 0.23750277432528422 0.12545454545454543 0.21250277432528422 0.14818181818181816 Q 0.18750277432528423 0.1709090909090909 0.18477550159801148 0.21227272727272725 L 0.35932095614346604 0.21227272727272725 Q 0.3597755015980115 0.1845454545454545 0.34818459250710243 0.16499999999999998 M 0.6647797185724433 0.10181818181818181 L 0.6647797185724433 0.35 L 0.6329615367542615 0.35 L 0.6329615367542615 0.30636363636363634 Q 0.6220524458451706 0.32954545454545453 0.5993251731178979 0.3418181818181818 Q 0.5765979003906251 0.35409090909090907 0.5484160822088069 0.35409090909090907 Q 0.5038706276633524 0.35409090909090907 0.4756888094815342 0.32659090909090904 Q 0.44750699129971605 0.2990909090909091 0.44750699129971605 0.2468181818181818 L 0.44750699129971605 0.10181818181818181 L 0.4788706276633524 0.10181818181818181 L 0.4788706276633524 0.24318181818181817 Q 0.4788706276633524 0.28363636363636363 0.4990979003906251 0.305 Q 0.5193251731178978 0.32636363636363636 0.5543251731178979 0.32636363636363636 Q 0.5902342640269888 0.32636363636363636 0.6115979003906251 0.3036363636363636 Q 0.6329615367542615 0.2809090909090909 0.6329615367542615 0.23681818181818182 L 0.6329615367542615 0.10181818181818181 L 0.6647797185724433 0.10181818181818181 M 0.8013686301491478 0.10999999999999999 Q 0.8229595392400569 0.09727272727272723 0.8543231756036933 0.09727272727272723 L 0.8543231756036933 0.13045454545454543 L 0.8456868119673296 0.13045454545454543 Q 0.8111413574218751 0.13045454545454543 0.7902322665127842 0.14909090909090908 Q 0.7693231756036933 0.1677272727272727 0.7693231756036933 0.21136363636363634 L 0.7693231756036933 0.35 L 0.7375049937855115 0.35 L 0.7375049937855115 0.10181818181818181 L 0.7693231756036933 0.10181818181818181 L 0.7693231756036933 0.14590909090909088 Q 0.7797777210582387 0.12272727272727271 0.8013686301491478 0.10999999999999999 M 1.4120442338423296 0.03227272727272723 L 1.3220442338423297 0.35 L 1.2865896883877843 0.35 L 1.2065896883877842 0.07909090909090905 L 1.1247715065696025 0.35 L 1.0902260520241478 0.3504545454545454 L 1.0020442338423297 0.03227272727272723 L 1.0361351429332388 0.03227272727272723 L 1.1088624156605114 0.3109090909090909 L 1.1902260520241479 0.03227272727272723 L 1.2256805974786933 0.03227272727272723 L 1.3047715065696024 0.3109090909090909 L 1.3779533247514206 0.03227272727272723 L 1.4120442338423296 0.03227272727272723 M 1.6843247292258523 0.23818181818181816 L 1.4784156383167615 0.23818181818181816 Q 1.4797792746803977 0.26636363636363636 1.492052001953125 0.2863636363636364 Q 1.5043247292258524 0.30636363636363634 1.5243247292258524 0.3165909090909091 Q 1.5443247292258522 0.3268181818181818 1.5679610928622159 0.3268181818181818 Q 1.5988701837713069 0.3268181818181818 1.6200065474076704 0.31181818181818177 Q 1.641142911044034 0.2968181818181818 1.647961092862216 0.27136363636363636 L 1.6815974564985796 0.27136363636363636 Q 1.6725065474076706 0.3077272727272727 1.6427338201349433 0.3306818181818182 Q 1.612961092862216 0.35363636363636364 1.5679610928622159 0.35363636363636364 Q 1.532961092862216 0.35363636363636364 1.5052338201349431 0.33795454545454545 Q 1.4775065474076705 0.32227272727272727 1.4618247292258524 0.2934090909090909 Q 1.446142911044034 0.26454545454545453 1.446142911044034 0.2259090909090909 Q 1.446142911044034 0.18727272727272726 1.4615974564985796 0.15818181818181817 Q 1.477052001953125 0.12909090909090906 1.5047792746803978 0.11363636363636362 Q 1.5325065474076704 0.09818181818181815 1.5679610928622159 0.09818181818181815 Q 1.6034156383167613 0.09818181818181815 1.6300065474076706 0.11363636363636362 Q 1.6565974564985795 0.12909090909090906 1.6709156383167614 0.1552272727272727 Q 1.6852338201349433 0.18136363636363634 1.6852338201349433 0.21318181818181817 Q 1.6852338201349433 0.22954545454545452 1.6843247292258523 0.23818181818181816 M 1.6418247292258523 0.16499999999999998 Q 1.6302338201349431 0.14545454545454542 1.610233820134943 0.13545454545454544 Q 1.5902338201349433 0.12545454545454543 1.5665974564985796 0.12545454545454543 Q 1.531142911044034 0.12545454545454543 1.506142911044034 0.14818181818181816 Q 1.4811429110440342 0.1709090909090909 1.4784156383167615 0.21227272727272725 L 1.652961092862216 0.21227272727272725 Q 1.6534156383167613 0.1845454545454545 1.6418247292258523 0.16499999999999998 M 1.812738037109375 0.11454545454545453 Q 1.8384198552911932 0.09818181818181815 1.8734198552911931 0.09818181818181815 Q 1.9075107643821023 0.09818181818181815 1.9343289462002842 0.11386363636363633 Q 1.961147128018466 0.12954545454545452 1.9763744007457387 0.1584090909090909 Q 1.9916016734730113 0.18727272727272726 1.9916016734730113 0.22545454545454544 Q 1.9916016734730113 0.2636363636363636 1.9763744007457387 0.2927272727272727 Q 1.961147128018466 0.3218181818181818 1.9341016734730114 0.3377272727272727 Q 1.9070562189275568 0.35363636363636364 1.8734198552911931 0.35363636363636364 Q 1.8379653098366477 0.35363636363636364 1.8122834916548296 0.33749999999999997 Q 1.7866016734730115 0.32136363636363635 1.7747834916548295 0.2954545454545454 L 1.7747834916548295 0.35 L 1.7434198552911933 0.35 L 1.7434198552911933 0.013636363636363613 L 1.7747834916548295 0.013636363636363613 L 1.7747834916548295 0.1568181818181818 Q 1.787056218927557 0.1309090909090909 1.812738037109375 0.11454545454545453 M 1.9472834916548296 0.17204545454545453 Q 1.9352380371093751 0.14954545454545454 1.9143289462002842 0.1377272727272727 Q 1.8934198552911932 0.1259090909090909 1.8670562189275568 0.1259090909090909 Q 1.8416016734730114 0.1259090909090909 1.820465309836648 0.13818181818181816 Q 1.7993289462002842 0.15045454545454542 1.787056218927557 0.17318181818181816 Q 1.7747834916548295 0.1959090909090909 1.7747834916548295 0.2259090909090909 Q 1.7747834916548295 0.25590909090909086 1.787056218927557 0.2786363636363636 Q 1.7993289462002842 0.30136363636363633 1.820465309836648 0.3136363636363636 Q 1.8416016734730114 0.32590909090909087 1.8670562189275568 0.32590909090909087 Q 1.8934198552911932 0.32590909090909087 1.9143289462002842 0.31386363636363634 Q 1.9352380371093751 0.3018181818181818 1.9472834916548296 0.2788636363636363 Q 1.959328946200284 0.25590909090909086 1.959328946200284 0.22545454545454544 Q 1.959328946200284 0.19454545454545452 1.9472834916548296 0.17204545454545453" fill="#dceac6" fill-rule="nonzero"></path></g><g clip-path="url(#SvgjsClipPath1003)"><g clip-path="url(#SvgjsClipPath1001c117c2cc-3636-43e7-ab61-64c4ef1a1b70)"><path d=" M -0.06321683249898413 -1.2635610704184757 C -0.08122393247672344 -1.0740332002430544 -0.23216484567840212 -0.924486044540298 -0.42185160255857534 -0.9082378604226338 C -0.40476473643083466 -1.0961803244744786 -0.25439900817138006 -1.2499163978875698 -0.06321683249898413 -1.2635610704184757 Z" fill="#64c6c4" transform="matrix(1,0,0,1,0,0)" fill-rule="evenodd"></path></g><g clip-path="url(#SvgjsClipPath1001c117c2cc-3636-43e7-ab61-64c4ef1a1b70)"><path d=" M 0.06321030082233081 -1.389994735416445 C 0.08091650819507734 -1.5802844063160786 0.2316485457469526 -1.7309752767479787 0.42194304603173594 -1.7486295054760361 C 0.4042067239005487 -1.558353982564363 0.25349066134558274 -1.4076790827663666 0.06321030082232992 -1.389994735416445 Z" fill="#64c6c4" transform="matrix(1,0,0,1,0,0)" fill-rule="evenodd"></path></g><g clip-path="url(#SvgjsClipPath1001c117c2cc-3636-43e7-ab61-64c4ef1a1b70)"><path d=" M 0.09393530780432346 -1.7384662166018903 C 0.12046686056509226 -1.999192349902002 0.33125156163033864 -2.2027262206495966 0.5927463905426049 -2.2201185847692324 C 0.5653133485943973 -1.9638809096196574 0.3535629231374995 -1.7588907694999967 0.09394837115763299 -1.7384662166018903 Z" fill="#64c6c4" transform="matrix(1,0,0,1,0,0)" fill-rule="evenodd"></path></g><g clip-path="url(#SvgjsClipPath1001c117c2cc-3636-43e7-ab61-64c4ef1a1b70)"><path d=" M -0.09390918109770663 -1.7384662166018903 C -0.1204764903244182 -1.9991875261295988 -0.33126052321410293 -2.2027074267400018 -0.59275292221926 -2.2201185847692324 C -0.5619364717641062 -1.9638809096196574 -0.3535302647542278 -1.7588907694999967 -0.09392224445101527 -1.7384662166018903 Z" fill="#64c6c4" transform="matrix(1,0,0,1,0,0)" fill-rule="evenodd"></path></g><g clip-path="url(#SvgjsClipPath1001c117c2cc-3636-43e7-ab61-64c4ef1a1b70)"><path d=" M -0.0016753750618367924 -1.8613597128532096 C -0.14585645640916578 -2.037605611968547 -0.14443894572778904 -2.2914442123408763 0.0017015017684551825 -2.46606886918823 C 0.1458877831135923 -2.289824809762245 0.14447025156179794 -2.0359824720510717 -0.0016753750618367924 -1.8613597128532096 Z" fill="#64c6c4" transform="matrix(1,0,0,1,0,0)" fill-rule="evenodd"></path></g><g clip-path="url(#SvgjsClipPath1001c117c2cc-3636-43e7-ab61-64c4ef1a1b70)"><path d=" M 0.09393530780432346 -0.9185056561232485 C 0.12134118559595564 -0.6576198965930908 0.3311966869128462 -0.45354883156197445 0.5927463905426047 -0.43344375274234315 C 0.564156445830809 -0.6937478806509891 0.35494919959553206 -0.8971938870827822 0.09394837115763299 -0.918505656123249 Z" fill="#64c6c4" transform="matrix(1,0,0,1,0,0)" fill-rule="evenodd"></path></g><g clip-path="url(#SvgjsClipPath1001c117c2cc-3636-43e7-ab61-64c4ef1a1b70)"><path d=" M -0.09390918109770663 -0.9185056561232485 C -0.12135768752578979 -0.6576281223084057 -0.3312089318794108 -0.4535745567887477 -0.5927529222192609 -0.43344375274234315 C -0.5619364717641062 -0.6930909631054816 -0.3535302647542278 -0.8980811032251423 -0.09392224445101527 -0.9185056561232485 Z" fill="#64c6c4" transform="matrix(1,0,0,1,0,0)" fill-rule="evenodd"></path></g><g clip-path="url(#SvgjsClipPath1001c117c2cc-3636-43e7-ab61-64c4ef1a1b70)"><path d=" M -0.41155768015134275 -1.4207197423984388 C -0.667893330450734 -1.448028682490215 -0.8728769388937403 -1.659903209803545 -0.8933406818517723 -1.9195177617834114 C -0.6326242549169829 -1.8929307571965286 -0.4290835127425383 -1.682201614195571 -0.41155768015134275 -1.4207197423984388 Z" fill="#64c6c4" transform="matrix(1,0,0,1,0,0)" fill-rule="evenodd"></path></g><g clip-path="url(#SvgjsClipPath1001c117c2cc-3636-43e7-ab61-64c4ef1a1b70)"><path d=" M -0.41155768015134275 -1.236278257033317 C -0.667893330450734 -1.2089693169415412 -0.8728769388937403 -0.997094789628211 -0.8933406818517723 -0.7374802376483443 C -0.6326017360814766 -0.7640208783771123 -0.4290363955381781 -0.9747754884817681 -0.41155768015134353 -1.236278257033317 Z" fill="#64c6c4" transform="matrix(1,0,0,1,0,0)" fill-rule="evenodd"></path></g><g clip-path="url(#SvgjsClipPath1001c117c2cc-3636-43e7-ab61-64c4ef1a1b70)"><path d=" M 0.41168178200777517 -1.4207197423984388 C 0.667788823624264 -1.448028682490215 0.8727789637439247 -1.659903209803545 0.8933341501751182 -1.9195177617834114 C 0.6326176079745598 -1.8929767943028004 0.4290907346133346 -1.682204859950088 0.41168178200777517 -1.4207197423984388 Z" fill="#64c6c4" transform="matrix(1,0,0,1,0,0)" fill-rule="evenodd"></path></g><g clip-path="url(#SvgjsClipPath1001c117c2cc-3636-43e7-ab61-64c4ef1a1b70)"><path d=" M 0.41168178200777517 -1.236278257033317 C 0.667788823624264 -1.2089693169415412 0.8727789637439247 -0.997094789628211 0.8933341501751182 -0.7374802376483443 C 0.6325950637458782 -0.7639747866618916 0.4290435562838877 -0.9747722320293579 0.41168178200777517 -1.2362782570333162 Z" fill="#64c6c4" transform="matrix(1,0,0,1,0,0)" fill-rule="evenodd"></path></g><g clip-path="url(#SvgjsClipPath1001c117c2cc-3636-43e7-ab61-64c4ef1a1b70)"><path d=" M -0.06321683249898413 -1.389994735416445 C -0.07976955677541908 -1.5807870577683865 -0.23105928020663458 -1.732076781199602 -0.4218516025585761 -1.7486295054760361 C -0.4040777350042988 -1.5584085349041803 -0.25343780307083996 -1.407768602970722 -0.06321683249898413 -1.3899947354164441 Z" fill="#64c6c4" transform="matrix(1,0,0,1,0,0)" fill-rule="evenodd"></path></g><g clip-path="url(#SvgjsClipPath1001c117c2cc-3636-43e7-ab61-64c4ef1a1b70)"><path d=" M 0.06321030082233081 -1.2635610704184757 C 0.08026450856679945 -1.075625138043285 0.23400711365654558 -0.9253900433169178 0.4219430460317364 -0.9082378604226335 C 0.4049606867304645 -1.0961803244744786 0.25456230008773906 -1.2499163978875698 0.06321030082233081 -1.2635610704184757 Z" fill="#64c6c4" transform="matrix(1,0,0,1,0,0)" fill-rule="evenodd"></path></g><g clip-path="url(#SvgjsClipPath1001c117c2cc-3636-43e7-ab61-64c4ef1a1b70)"><path d=" M -0.0016753750618367924 -0.7955860331653115 C -0.14515018445096695 -0.6212817099677188 -0.14515018445096695 -0.3650505664947974 0.0017015017684551825 -0.18748693664669114 C 0.14518284283423943 -0.365037503141489 0.14518284283423943 -0.6212686466144106 -0.0016753750618367924 -0.795586033165312 Z" fill="#64c6c4" transform="matrix(1,0,0,1,0,0)" fill-rule="evenodd"></path></g><g clip-path="url(#SvgjsClipPath1001c117c2cc-3636-43e7-ab61-64c4ef1a1b70)"><path d=" M 0.5347059117921813 -1.3284859363625696 C 0.7094865559307015 -1.1816266508215967 0.9645299171622124 -1.1816266508215967 1.1393105613007328 -1.3284859363625696 C 0.9645299171622124 -1.4753452219035426 0.7094865559307015 -1.4753452219035426 0.5347059117921813 -1.3284859363625696 Z" fill="#64c6c4" transform="matrix(1,0,0,1,0,0)" fill-rule="evenodd"></path></g><g clip-path="url(#SvgjsClipPath1001c117c2cc-3636-43e7-ab61-64c4ef1a1b70)"><path d=" M -0.5312310598120751 -1.3284859363625696 C -0.7087750946302189 -1.1816277184664938 -0.9651107449296092 -1.1816277184664938 -1.139330156330696 -1.3284859363625696 C -0.9651303399595724 -1.4753441542586458 -0.708794689660182 -1.4753441542586458 -0.5312310598120751 -1.3284859363625696 Z" fill="#64c6c4" transform="matrix(1,0,0,1,0,0)" fill-rule="evenodd"></path></g></g></g><defs><clipPath id="SvgjsClipPath1003"><path d=" M -1.1393105613007328 -2.466094995894848 h 2.2786211226014657 v 2.278594995894848 h -2.2786211226014657 Z"></path></clipPath><clipPath id="SvgjsClipPath1001c117c2cc-3636-43e7-ab61-64c4ef1a1b70"><path d=" M -1.1393105613007328 -2.466094995894848 L 1.1393105613007328 -2.466094995894848 L 1.1393105613007328 -0.1875 L -1.1393105613007328 -0.1875 Z"></path></clipPath></defs></svg>